<svg width="64" height="64" viewBox="0 0 64 64" xmlns="http://www.w3.org/2000/svg"><path d="m12 27h16a1 1 0 0 0 1-1v-2a9.01 9.01 0 0 0 -5.623-8.337 5 5 0 1 0 -6.754 0 9.01 9.01 0 0 0 -5.623 8.337v2a1 1 0 0 0 1 1zm5-15a3 3 0 1 1 3 3 3 3 0 0 1 -3-3zm-4 12a7 7 0 0 1 14 0v1h-14z"/><path d="m61.54 20.72a3.994 3.994 0 0 0 -5.41-1.67 3.93 3.93 0 0 0 -1.95 2.35l-.18.58v-7.11a1.007 1.007 0 0 0 -.29-.71l-11.83-11.87a1.033 1.033 0 0 0 -.71-.29h-34.17a1 1 0 0 0 -1 1v58a1 1 0 0 0 1 1h46a1 1 0 0 0 1-1v-12l2.03-6.55 5.2-16.77.59-1.91a3.954 3.954 0 0 0 -.28-3.05zm-19.54-15.47 8.72 8.75h-3.72a5 5 0 0 1 -5-5zm10 54.75h-44v-56h32v5a7.008 7.008 0 0 0 7 7h5v12.43l-6.02 19.44a.946.946 0 0 0 -.04.44l1.01 6.89a.993.993 0 0 0 .69.82 1.032 1.032 0 0 0 .3.04.985.985 0 0 0 .73-.32l3.33-3.61zm-3.97-11.19 3.36 1.04-2.77 2.99zm7.97-13.02-3.79 12.22-3.82-1.18 5.53-17.83h.08v-.27l.02-.05 1.91.59 1.91.59zm2.43-7.84-1.91-.59-1.91-.59.59-1.91 1.91.59 1.91.59zm1.48-4.77-.3.95-.55-.17-3.27-1.01.3-.96a2 2 0 0 1 2.5-1.32 2.014 2.014 0 0 1 1.18.98 1.987 1.987 0 0 1 .14 1.53z"/><path d="m32 19h17v2h-17z"/><path d="m32 25h17v2h-17z"/><path d="m11 31h38v2h-38z"/><path d="m11 37h34v2h-34z"/><path d="m11 43h34v2h-34z"/><path d="m11 49h14v2h-14z"/></svg>